# xmcd CD database file
#
# Track frame offsets:
#	150
#	13075
#	26593
#	41492
#	56454
#	71708
#	84229
#	96154
#	109565
#	122365
#	133887
#	147656
#
# Disc length: 2116 seconds
#
# Revision: 3
# Processed by: cddbd v1.5.1PL2 Copyright (c) Steve Scherf et al.
# Submitted via: CDex 1.60beta1-cs1
#
DISCID=a008420c
DTITLE=STAN GETZ - JAZZ HISTORY10
DYEAR=2003
DGENRE=Jazz
TTITLE0=Indian Summer
TTITLE1=Long Island Sound
TTITLE2=The Lady In Red
TTITLE3=I'Ve Got You Under My Skin
TTITLE4=What's New
TTITLE5=My Old Flame
TTITLE6=Crazy Chords
TTITLE7=Gone With The Wind
TTITLE8=Yesterdays
TTITLE9=Struke Up The Band
TTITLE10=You Go To My Head
TTITLE11=Out Of Nowhere
EXTD=YEAR: 2003
EXTT0=
EXTT1=
EXTT2=
EXTT3=
EXTT4=
EXTT5=
EXTT6=
EXTT7=
EXTT8=
EXTT9=
EXTT10=
EXTT11=
PLAYORDER=
